HIERARCHY
ROOT hip
{
  OFFSET 127.108 83.7385 -19.4113
  CHANNELS 6 Xposition Yposition Zposition Zrotation Xrotation Yrotation
  JOINT abdomen
  {
    OFFSET 0 20.6881 -0.73152
    CHANNELS 3 Zrotation Xrotation Yrotation
    JOINT chest
    {
      OFFSET 0 11.7043 -0.48768
      CHANNELS 3 Zrotation Xrotation Yrotation
      JOINT neck
      {
        OFFSET 0 22.1894 -2.19456
        CHANNELS 3 Zrotation Xrotation Yrotation
        JOINT head
        {
          OFFSET -0.24384 7.07133 1.2192
          CHANNELS 3 Zrotation Xrotation Yrotation
          JOINT leftEye
          {
            OFFSET 4.14528 8.04674 8.04672
            CHANNELS 3 Zrotation Xrotation Yrotation
            End Site
            {
              OFFSET 1 0 0
            }
          }
          JOINT rightEye
          {
            OFFSET -3.6576 8.04674 8.04672
            CHANNELS 3 Zrotation Xrotation Yrotation
            End Site
            {
              OFFSET 1 0 0
            }
          }
        }
      }
      JOINT rCollar
      {
        OFFSET -2.68224 19.2634 -4.8768
        CHANNELS 3 Zrotation Xrotation Yrotation
        JOINT rShldr
        {
          OFFSET -8.77824 -1.95073 1.46304
          CHANNELS 3 Zrotation Xrotation Yrotation
          JOINT rForeArm
          {
            OFFSET -28.1742 -1.7115 0.48768
            CHANNELS 3 Zrotation Xrotation Yrotation
            JOINT rHand
            {
              OFFSET -22.5879 0.773209 7.07136
              CHANNELS 3 Zrotation Xrotation Yrotation
              JOINT rThumb1
              {
                OFFSET -1.2192 -0.487915 3.41376
                CHANNELS 3 Zrotation Xrotation Yrotation
                JOINT rThumb2
                {
                  OFFSET -3.37035 -0.52449 3.41376
                  CHANNELS 3 Zrotation Xrotation Yrotation
                  End Site
                  {
                    OFFSET -1.78271 -1.18214 1.43049
                  }
                }
              }
              JOINT rIndex1
              {
                OFFSET -7.75947 0.938293 5.60832
                CHANNELS 3 Zrotation Xrotation Yrotation
                JOINT rIndex2
                {
                  OFFSET -2.54057 -0.884171 1.56538
                  CHANNELS 3 Zrotation Xrotation Yrotation
                  End Site
                  {
                    OFFSET -1.62519 -0.234802 1.16502
                  }
                }
              }
              JOINT rMid1
              {
                OFFSET -8.24714 1.18213 3.41376
                CHANNELS 3 Zrotation Xrotation Yrotation
                JOINT rMid2
                {
                  OFFSET -3.10165 -0.590103 1.0647
                  CHANNELS 3 Zrotation Xrotation Yrotation
                  End Site
                  {
                    OFFSET -2.48547 -0.328903 0.83742
                  }
                }
              }
              JOINT rRing1
              {
                OFFSET -8.82822 0.546677 1.51678
                CHANNELS 3 Zrotation Xrotation Yrotation
                JOINT rRing2
                {
                  OFFSET -2.60934 -0.819778 -0.0198488
                  CHANNELS 3 Zrotation Xrotation Yrotation
                  End Site
                  {
                    OFFSET -2.33842 -0.294052 0.168128
                  }
                }
              }
              JOINT rPinky1
              {
                OFFSET -8.27202 -0.0477905 -0.4584
                CHANNELS 3 Zrotation Xrotation Yrotation
                JOINT rPinky2
                {
                  OFFSET -1.82734 -0.647385 -0.700984
                  CHANNELS 3 Zrotation Xrotation Yrotation
                  End Site
                  {
                    OFFSET -1.69225 -0.51767 -0.607171
                  }
                }
              }
            }
          }
        }
      }
      JOINT lCollar
      {
        OFFSET 2.68224 19.2634 -4.8768
        CHANNELS 3 Zrotation Xrotation Yrotation
        JOINT lShldr
        {
          OFFSET 8.77824 -1.95073 1.46304
          CHANNELS 3 Zrotation Xrotation Yrotation
          JOINT lForeArm
          {
            OFFSET 28.1742 -1.7115 0.48768
            CHANNELS 3 Zrotation Xrotation Yrotation
            JOINT lHand
            {
              OFFSET 22.5879 0.773209 7.07136
              CHANNELS 3 Zrotation Xrotation Yrotation
              JOINT lThumb1
              {
                OFFSET 1.2192 -0.487915 3.41376
                CHANNELS 3 Zrotation Xrotation Yrotation
                JOINT lThumb2
                {
                  OFFSET 3.37035 -0.52449 3.41376
                  CHANNELS 3 Zrotation Xrotation Yrotation
                  End Site
                  {
                    OFFSET 1.78271 -1.18214 1.43049
                  }
                }
              }
              JOINT lIndex1
              {
                OFFSET 7.75947 0.938293 5.60832
                CHANNELS 3 Zrotation Xrotation Yrotation
                JOINT lIndex2
                {
                  OFFSET 2.54057 -0.884171 1.56538
                  CHANNELS 3 Zrotation Xrotation Yrotation
                  End Site
                  {
                    OFFSET 1.62519 -0.234802 1.16502
                  }
                }
              }
              JOINT lMid1
              {
                OFFSET 8.24714 1.18213 3.41376
                CHANNELS 3 Zrotation Xrotation Yrotation
                JOINT lMid2
                {
                  OFFSET 3.10165 -0.590103 1.0647
                  CHANNELS 3 Zrotation Xrotation Yrotation
                  End Site
                  {
                    OFFSET 2.48547 -0.328903 0.83742
                  }
                }
              }
              JOINT lRing1
              {
                OFFSET 8.82822 0.546677 1.51678
                CHANNELS 3 Zrotation Xrotation Yrotation
                JOINT lRing2
                {
                  OFFSET 2.60934 -0.819778 -0.0198488
                  CHANNELS 3 Zrotation Xrotation Yrotation
                  End Site
                  {
                    OFFSET 2.33842 -0.294052 0.168128
                  }
                }
              }
              JOINT lPinky1
              {
                OFFSET 8.27202 -0.0477905 -0.4584
                CHANNELS 3 Zrotation Xrotation Yrotation
                JOINT lPinky2
                {
                  OFFSET 1.82734 -0.647385 -0.700984
                  CHANNELS 3 Zrotation Xrotation Yrotation
                  End Site
                  {
                    OFFSET 1.69225 -0.51767 -0.607171
                  }
                }
              }
            }
          }
        }
      }
    }
  }
  JOINT rButtock
  {
    OFFSET -8.77824 4.35084 1.2192
    CHANNELS 3 Zrotation Xrotation Yrotation
    JOINT rThigh
    {
      OFFSET 0 -1.70687 -2.19456
      CHANNELS 3 Zrotation Xrotation Yrotation
      JOINT rShin
      {
        OFFSET 0 -36.8199 0.73152
        CHANNELS 3 Zrotation Xrotation Yrotation
        JOINT rFoot
        {
          OFFSET 0.73152 -45.1104 -5.12064
          CHANNELS 3 Zrotation Xrotation Yrotation
          End Site
          {
            OFFSET -1.1221 -3.69964 12.103
          }
        }
      }
    }
  }
  JOINT lButtock
  {
    OFFSET 8.77824 4.35084 1.2192
    CHANNELS 3 Zrotation Xrotation Yrotation
    JOINT lThigh
    {
      OFFSET 0 -1.70687 -2.19456
      CHANNELS 3 Zrotation Xrotation Yrotation
      JOINT lShin
      {
        OFFSET 0 -36.8199 0.73152
        CHANNELS 3 Zrotation Xrotation Yrotation
        JOINT lFoot
        {
          OFFSET -0.73152 -45.1104 -5.12064
          CHANNELS 3 Zrotation Xrotation Yrotation
          End Site
          {
            OFFSET 1.1221 -3.69964 12.103
          }
        }
      }
    }
  }
}
MOTION
Frames:	5
Frame Time:	0.00833333
6.26298 80.4066 -17.7395 6.76368 3.45558 -86.5546 5.70757 -6.83432 7.89795 -8.59779 -16.182 0.896174 -3.26606 16.7267 -1.81093 7.91259 -12.7916 -3.30405 -0 0 0 -0 0 0 -2.95895e-014 -3.6978e-013 6.05765e-014 33.7866 -35.8079 81.3319 -21.9709 -51.6087 109.194 -5.19622 -52.4328 -10.527 1.11827e-011 -1.17411e-010 -1.01104e-010 2.39256e-011 -2.12087e-010 -1.7916e-010 1.11964e-011 -1.17402e-010 -1.01111e-010 7.73091 5.47488 0.417314 1.11844e-011 -1.17418e-010 -1.01111e-010 2.90554 0.965183 0.102902 1.11921e-011 -1.17418e-010 -1.01106e-010 10.2786 0.731801 0.0259123 1.11746e-011 -1.17415e-010 -1.011e-010 2.22167 -0.733487 -0.20892 -2.96968e-014 -3.69799e-013 6.03498e-014 -41.9993 -33.7915 24.3301 24.2697 -19.5906 -50.4964 0.397837 17.6595 -2.56426 -1.49073e-009 9.66297e-009 -2.12767e-010 -2.57736e-009 1.69217e-008 -3.47091e-010 -1.49074e-009 9.66297e-009 -2.12767e-010 -7.73091 5.47488 -0.417314 -1.49073e-009 9.66297e-009 -2.1277e-010 -2.90554 0.965183 -0.102902 -1.49074e-009 9.66298e-009 -2.1277e-010 -10.2786 0.731801 -0.0259123 -1.49073e-009 9.66296e-009 -2.1277e-010 -2.22167 -0.733487 0.20892 -2.03217e-016 0 -3.88251e-019 13.746 -39.0049 6.32598 -0.348541 37.6855 -0.141537 -1.08591 -6.29545 -4.16742 2.03217e-016 0 3.88251e-019 7.23162 -25.1148 8.84251 2.58698 72.5644 -2.75291 -0.307357 12.5824 6.25229 
5.11685 80.2158 -18.1604 6.63683 5.60346 -87.552 7.28749 -6.20187 6.64949 -7.05626 -15.9701 0.788634 -2.57338 16.115 -1.04286 6.18929 -13.4356 -1.85178 -0 0 0 -0 0 0 -7.52918e-014 -6.85952e-013 8.93518e-014 33.7213 -34.6567 81.336 -20.9872 -52.5549 111.766 -4.56177 -50.19 -9.71147 2.21618e-010 -7.88523e-011 -1.37559e-010 3.88287e-010 -1.42552e-010 -2.31033e-010 2.21632e-010 -7.88369e-011 -1.37568e-010 7.73091 5.47488 0.417314 2.21618e-010 -7.88581e-011 -1.37568e-010 2.90554 0.965183 0.102902 2.21627e-010 -7.88573e-011 -1.3756e-010 10.2786 0.731801 0.0259123 2.21614e-010 -7.88537e-011 -1.37555e-010 2.22167 -0.733487 -0.20892 -7.54094e-014 -6.85957e-013 8.91712e-014 -38.6664 -35.2483 29.5179 23.6514 -18.4331 -48.5926 0.372946 17.1087 -2.47934 -1.59168e-009 -6.95788e-009 1.15269e-010 -2.74789e-009 -1.18723e-008 2.21758e-010 -1.59169e-009 -6.95789e-009 1.15271e-010 -7.73091 5.47488 -0.417314 -1.59168e-009 -6.95788e-009 1.15268e-010 -2.90554 0.965183 -0.102902 -1.59169e-009 -6.95788e-009 1.15267e-010 -10.2786 0.731801 -0.0259123 -1.59168e-009 -6.95788e-009 1.15275e-010 -2.22167 -0.733487 0.20892 -2.03217e-016 0 -3.88251e-019 15.9304 -37.9646 6.15079 -0.334119 37.4631 -0.151314 -1.11545 -7.06085 -3.99805 2.03217e-016 0 3.88251e-019 10.4086 -29.6519 9.8031 4.19013 77.9256 -4.35622 -0.337908 13.457 5.65398 
3.96137 80.1316 -18.5692 6.3817 7.16874 -88.8934 8.44083 -5.44857 5.31671 -5.28199 -15.5862 0.676953 -1.94065 15.5207 -0.308863 4.51667 -14.0905 -0.496336 -0 0 0 -0 0 0 -9.97381e-014 -1.07334e-012 1.06598e-013 33.4505 -33.418 80.99 -20.0165 -53.336 114.174 -3.94404 -47.7415 -8.89809 3.53248e-010 -5.02528e-011 -1.58964e-010 6.16026e-010 -9.05854e-011 -2.60942e-010 3.53261e-010 -5.02349e-011 -1.58977e-010 7.73091 5.47488 0.417314 3.53248e-010 -5.02574e-011 -1.58974e-010 2.90554 0.965183 0.102902 3.53256e-010 -5.02562e-011 -1.58966e-010 10.2786 0.731801 0.0259123 3.53246e-010 -5.02524e-011 -1.58961e-010 2.22167 -0.733487 -0.20892 -9.98483e-014 -1.07334e-012 1.06449e-013 -35.7274 -35.831 34.3686 22.9359 -17.2303 -46.4003 0.365183 16.9351 -2.45264 -1.54494e-009 -1.68841e-008 3.32384e-010 -2.66453e-009 -2.90797e-008 5.96681e-010 -1.54495e-009 -1.68841e-008 3.32387e-010 -7.73091 5.47488 -0.417314 -1.54494e-009 -1.68841e-008 3.32384e-010 -2.90554 0.965183 -0.102902 -1.54495e-009 -1.68841e-008 3.32383e-010 -10.2786 0.731801 -0.0259123 -1.54494e-009 -1.68841e-008 3.32393e-010 -2.22167 -0.733487 0.20892 -2.03217e-016 0 -3.88251e-019 17.6715 -36.6991 5.75141 -0.315089 37.1876 -0.13698 -1.13107 -7.82302 -3.76381 2.03217e-016 0 3.88251e-019 13.2202 -33.7284 10.3748 7.09498 82.2503 -7.26605 -0.343802 14.0537 5.20698 
2.82883 80.02 -18.9749 5.84412 8.24373 -89.5914 9.01112 -4.52015 3.79405 -3.08349 -14.913 0.557956 -1.32506 14.9445 0.43676 2.77873 -14.8133 0.816758 -0 0 0 -0 0 0 -8.21269e-014 -1.64857e-012 1.06925e-013 32.9785 -31.9541 80.427 -19.12 -53.9603 116.316 -3.31062 -44.8953 -8.03652 3.41376e-010 -6.78951e-011 -1.84091e-010 5.95866e-010 -1.19674e-010 -3.03957e-010 3.41387e-010 -6.7882e-011 -1.84109e-010 7.73091 5.47488 0.417314 3.41376e-010 -6.78996e-011 -1.841e-010 2.90554 0.965183 0.102902 3.41384e-010 -6.78982e-011 -1.84093e-010 10.2786 0.731801 0.0259123 3.41374e-010 -6.78945e-011 -1.84088e-010 2.22167 -0.733487 -0.20892 -8.21951e-014 -1.64856e-012 1.0679e-013 -33.7139 -35.2395 38.8086 22.0254 -15.8658 -43.6153 0.382555 17.3475 -2.51575 -1.22061e-009 -1.66829e-008 4.23307e-010 -2.10292e-009 -2.87614e-008 7.49274e-010 -1.22062e-009 -1.6683e-008 4.23311e-010 -7.73091 5.47488 -0.417314 -1.22061e-009 -1.6683e-008 4.23308e-010 -2.90554 0.965183 -0.102902 -1.22061e-009 -1.6683e-008 4.23306e-010 -10.2786 0.731801 -0.0259123 -1.22061e-009 -1.66829e-008 4.23314e-010 -2.22167 -0.733487 0.20892 -2.03217e-016 0 -3.88251e-019 18.9252 -35.0975 5.13699 -0.28856 36.8447 -0.0953563 -1.11993 -8.57162 -3.41963 2.03217e-016 0 3.88251e-019 15.425 -37.3013 10.3506 12.818 85.4568 -13.0055 -0.3414 14.4239 4.89492 
1.66207 79.9271 -19.3315 5.08924 9.32746 -89.5741 9.16254 -3.47625 2.07779 -0.504399 -13.9884 0.43354 -0.728643 14.3707 1.19343 0.983598 -15.6087 2.10651 -0 0 0 -0 0 0 -3.75983e-014 -2.3755e-012 9.35313e-014 32.3649 -30.272 79.7577 -18.3342 -54.5001 118.127 -2.71221 -41.6893 -7.17135 2.17982e-010 -1.25434e-010 -2.17334e-010 3.83472e-010 -2.18667e-010 -3.66047e-010 2.1799e-010 -1.25431e-010 -2.17359e-010 7.73091 5.47488 0.417314 2.17983e-010 -1.25439e-010 -2.17341e-010 2.90554 0.965183 0.102902 2.1799e-010 -1.25438e-010 -2.17338e-010 10.2786 0.731801 0.0259123 2.17979e-010 -1.25434e-010 -2.17331e-010 2.22167 -0.733487 -0.20892 -3.76007e-014 -2.3755e-012 9.34008e-014 -32.7108 -33.7538 42.8142 20.8561 -14.2455 -40.3976 0.420223 18.1674 -2.64255 -6.89514e-010 -1.0682e-008 4.58634e-010 -1.18458e-009 -1.84123e-008 8.02569e-010 -6.89518e-010 -1.0682e-008 4.58637e-010 -7.73091 5.47488 -0.417314 -6.89515e-010 -1.0682e-008 4.58634e-010 -2.90554 0.965183 -0.102902 -6.89515e-010 -1.0682e-008 4.5863e-010 -10.2786 0.731801 -0.0259123 -6.89515e-010 -1.0682e-008 4.58632e-010 -2.22167 -0.733487 0.20892 -2.03217e-016 0 -3.88251e-019 19.8199 -33.2544 4.32511 -0.254418 36.419 -0.031075 -1.09607 -9.29592 -3.04229 2.03217e-016 0 3.88251e-019 17.0433 -40.6074 9.7665 27.165 87.7127 -27.3828 -0.318391 14.4403 4.64842 
